<svg xmlns="http://www.w3.org/2000/svg" viewBox="0 0 256 256" enable-background="new 0 0 256 256"><path d="M112.2 47c1.3 1.9 2.5 3.8 3.7 5.5.6.9 1.2 1.9 1.9 2.8 1.3-4.3 2.8-8.6 4.5-12.8-3.3 1.3-6.6 2.7-10.1 4.5zM167.6 21.8c1-.6 1.9-1 2.8-1.2-.4-.2-.7-.4-1.1-.6-9.5-5.1-23.2-.7-24.4-.3C135.5 24.1 130 36 130 36.1c-3.8 7.6-6.8 15.7-9.1 24 9.8 15.3 22.5 36.5 34.8 61.1 1.3-1.1 2.2-2 2.8-2.6-9.2-73.2 1.7-92.1 9.1-96.8zM127 142.8c11.5-8.7 21.2-17.3 24.5-20.3-27.1-54.3-56.6-92.7-57.9-94.4-2.4-2.6-3.9-3.1-4.3-3.2l-.1.1.1-.1c-3-.6-25.2 7.2-39.2 23.1-1.3 2.2.6 7.4 1.1 9.1 6.1 18.2 16.5 40.7 25.4 57.8 9.2 17.6 15.4 29.1 25 44.9 4.6-2.8 17.5-10.6 25.4-17zM250 110.8c4.9-7.1 8.2-13.8 4.2-21.3-2.8-5.2-10.2-4.6-13.9-6.4-1.5-.7-2.9-1.5-4.1-2.1 7.4 6.8 13.4 17.3 13.8 29.8zM178.7 41.9v-.4c-.3-5.4-2-14.6-5.3-16.7-.7-.4-2-.5-3.5.5-1.7 1.1-4.8 4.1-7.2 12.5 2 .1 4.1.5 6.1 1.1.9.2 1.7.3 2.5.5 1.4.3 3.3.9 5 1.5-2.3-.7-4.6-1.3-7.1-1.9 3.2.9 6.4 2 9.5 2.9zM16.4 113.9c1.1.2 27.9 5.8 74.7 51.2L97 162c-18-29.5-28.3-51.3-36.6-68.5-7.9-2.8-23.1-6.3-26-6.3-11.7 0-21.3 18.4-21.9 26.7 1.3-.3 2.9-.1 3.9 0zM175.9 44.8c-10.2-1.5-16.2 6.4-13.7 64.8 4.6-3.6 11.3-9.8 15-16.6 11.8 9.6 40.9 42.1 39.5 75.1 2.1-1.5 8.3-6.2 12.6-11.5 1-1.2 1.8-2.5 2.6-3.7 19.7-39.4-25.4-103.4-56-108.1zM162.8 120.1l-.7.7c-5.8 5.6-12.7 11.6-20 17.4-15.1 13.4-44.8 35.1-91.1 49.2-7.5 2-33.8 9.8-43.8-2.8-9.3-11.6 5.2-26.5 18.1-31.4 11.4-4.3 27.6-3.5 41.4-3.1-37.2-30.9-69.1-44.8-51.8-17.8-.2-.3-.4-.6-.7-.9 2.9 4.7 6.9 9.5 11 14.4-21.9 10.7-27.6 29.4-24.5 38 3.6 9.9 13 17.2 20.4 23.5 35.8 30.5 88.4 38.4 131.8 24.4 12.8-4.8 52.3-22.7 57.2-58.4 3.6-26.4-10.6-56.5-33-80.5.1.2-2.8 15-14.3 27.3zM248.6 113.4c-.6-15.1-10.7-36.9-24.9-35.9 9.8 15.4 15.8 33.5 15.5 49.8 3.1 6 9.6-9.6 9.4-13.9z"/></svg>