<svg xmlns="http://www.w3.org/2000/svg" viewBox="783 256 476 413" enable-background="new 783 256 476 413"><style type="text/css">.st0{opacity:0.96;fill:#EFD4C7;enable-background:new ;} .st1{opacity:0.96;fill:#D6BCB2;enable-background:new ;} .st2{fill:url(#SVGID_1_);} .st3{fill:none;} .st4{fill:#D1749E;} .st5{fill:#4BC6E7;} .st6{fill:#C15988;} .st7{fill:#F180AF;} .st8{fill:#85D3E0;} .st9{fill:#46B9D3;} .st10{fill:#98E6F9;}</style><path class="st0" d="M1246.2 432.3s9-12.9 10.4-20.5c1.4-7.6 1.2-11.8-2.6-18.9-1.4-2.7-5.4-6.5-12.1-8.3-4.5-1.2-9.4-1.4-13.5-3.5-6.1-3-11.7-6.1-12.3-6.4 0 0-11.5-10.7-25.7-12.1 0 0-38.1-59.6-111.4-65.5 0 0-96.8-14.9-160.8 86.8 0 0-13 24.1-29.2 53.8-16.6 31.2-37.9 48-50.3 55.9-47 18.8-59.2 56.7-53.1 73.7 6.6 18.2 24 31.8 37.7 43.4 13.4 11.5 27.5 19.2 42.6 28.4l1.1.7c70.2 37 156.5 35.4 219.9 8.7 29.1-12.2 53.9-29.8 71.3-51.3 14.6-17.9 22.5-37.4 24.8-57.8l.2-.3s15-10.3 24.7-22.3c10-12.4 14.2-28 14.2-28 5.8-7.3 10.3-14.3 13.8-21.1 0-.1 10.8-21.2 10.3-35.4z"/><path class="st1" d="M1046.1 477.2c-12.7 8.3-33.9 20.5-49.6 23.3-5.8 1.1-11.6 1.9-17.5 2.6-8.6 1-17.1 1.7-25.7 2-8.5.3-16.9-.1-25.4.1-27.9.7-72.5-9.1-99.8 1.3-23.8 9.1-48 47.4-30.8 62 22.7 19.3 67.1 8.9 81 5.1 132.2-40.3 191-113.8 191-113.8s-10.5 9-23.2 17.4z"/><linearGradient id="SVGID_1_" gradientUnits="userSpaceOnUse" x1="-484.788" y1="-1065.392" x2="-484.781" y2="-1065.404" gradientTransform="matrix(.87 -.494 .494 .87 1862.289 1185.746)"><stop offset="0" stop-color="#F3F0EF"/><stop offset="1" stop-color="#EDDCD1"/></linearGradient><path class="st2" d="M914.3 498h-.2.2z"/><path class="st1" d="M1246.2 432.3c.4 10.8-6.7 27.7-6.7 27.7 1.5-3.8.9-10.1 1-14.1.2-12.7-2.4-25.4-6.4-37.3-3.7-11-8.1-23-16.2-31.5-.5-.5-2.8-3.4-3.6-3.4 0 0 23 12.4 32 58.9"/><path class="st1" d="M1212.3 510.5c3.7-6.6 8.4-13.7 9.9-22.5 2.2-13.4-.1-29.1-1.8-40.2-9.4-60.2-31.6-110-103.1-141.9-10.3-4.6-21.8-8-33.2-8.5l-1.1 4.6c9.3.4 19.3 3.1 28.1 6.1 17.8 6.2 37.5 18.4 51.3 31.3 20 18.7 32.9 45.1 40.6 73.5 8 29.3 10.5 60.7 9.9 88.3-.4 3.1-.5 6.3-.6 9.3z"/><path class="st3" d="M1072.8 456.6C1021 352.4 963.9 279 963.9 279c-7.2-7.9-11.4-7.3-11.4-7.3s-1.4.1-5 .7l-2.5.6c-34.5 10.7-55.1 30.1-63.8 38.7-2.5 2.5-3.8 4-3.8 4s-3.1 3-.9 13.4c0 0 .7 2.4 2.3 7.2 4.4 13.1 9.5 26 14.9 38.7 9.9 23.2 20.6 46.1 32.3 68.5 17.2 33.1 28.9 54.7 48.4 86.3m98.4-73.2C1021 352.4 963.9 279 963.9 279c-7.2-7.9-11.4-7.3-11.4-7.3s-1.4.1-5 .7l-2.5.6c-34.5 10.7-55.1 30.1-63.8 38.7-2.5 2.5-3.8 4-3.8 4s-3.1 3-.9 13.4c0 0 .7 2.4 2.3 7.2 4.4 13.1 9.5 26 14.9 38.7 9.9 23.2 20.6 46.1 32.3 68.5 17.2 33.1 28.9 54.7 48.4 86.3"/><path class="st1" d="M1082.9 452.1c22.3-22.8 28.7-52.8 28.7-52.8-7.7 14-22.4 26.9-30.7 32.9l2 19.9z"/><path class="st4" d="M902.1 394.2c-2.7-1-6.2-2.2-9.1-3.1 8.5 19.1 17.4 37.9 27.1 56.5 17 32.8 28.6 54.3 47.8 85.5l6.4-3.4c-37.5-60.5-57.2-104.2-72.2-135.5z"/><path class="st5" d="M1025.1 496.4c26.5-20 47.8-39.6 47.8-39.6-52-104.3-109-177.7-109-177.7-7.2-7.9-11.4-7.3-11.4-7.3s-1.4.1-5 .7l-2.5.6c-34.5 10.7-55.1 30.1-63.8 38.7-2.5 2.5-3.8 4-3.8 4s-3.1 3-.9 13.4c0 0 .7 2.4 2.3 7.2 4.4 13.1 9.5 26 14.9 38.7 9.9 23.2 20.6 46.1 32.3 68.5 17.2 33.1 28.9 54.7 48.4 86.3 0 0 32.1-18.7 50.7-33.5z"/><path class="st1" d="M1112.6 400.8c92.4 98.6 86.7 248.8-137.9 267.1 112.5 3.6 189.6-57 203.3-106.2 19.3-69.4-40.5-140.7-65.4-160.9z"/><path class="st6" d="M866.8 470.9c-18 20.6-36 26.1-36 26.1-17.4-20.4-32.7-39.3-29.5-60.2 5-31.8 36.7-36.2 36.7-36.2 13.1-11.3 16.3-4.3 16.3-4.3 112.3 20.4 12.5 74.6 12.5 74.6z"/><path class="st7" d="M893 391.1c-12.5-4-26.6-7.2-38.8-9.7-20-4.2-37.2 10.7-49.7 37.1-4.9 10.4-6.4 19.6-4.8 30.1 1 6.9 6.4 15.8 11.7 23.6-9.7-15-14.4-28.9 1.4-26.4 0 0 49.8 9.6 138.2 96.4l16.7-9.1C948.6 502 937 480.4 920 447.7c-9.6-18.6-18.6-37.5-27-56.6z"/><path class="st8" d="M1117.7 305.8s-11.3-4.2-17.2-5.5-16.5-2.9-16.5-2.9c-6.8 24.6-10.7 69.6-1.1 154.6 0 0-40 35.3-90.1 66.6 0 0-18.5-131.9 27.6-223.5 0 0 10.6-23.5 29.7-32.3 0 0 54.5-19 65.7 23.9 3 11.6 3.3 19.5 3.3 19.5l-1.4-.4z"/><path class="st9" d="M1001 332c-28.4 87.1-13.9 190-13.9 190 14-8.8 27.3-17.8 39-26.4 26.1-19.7 46.8-38.9 46.8-38.9-25.1-50.4-51.3-93.5-71.9-124.7z"/><path class="st10" d="M1119.4 306.5s-.3-8.8-3.4-20.3c-11.3-42.9-65.7-23.9-65.7-23.9-19.1 8.8-29.7 32.3-29.7 32.3-46.1 91.6-27.6 223.5-27.6 223.5 50.1-31.3 89.9-66.6 89.9-66.6-19.2-170.1 13.5-185.6 23.6-179.3 10.1 6.3 11.6 33.9 11.6 33.9l1.3.4z"/></svg>