<svg xmlns="http://www.w3.org/2000/svg" viewBox="-294 257 100 100" enable-background="new -294 257 100 100"><path d="M-208.3 340.1c-1.4-1.4-3.4-1.9-5.2-1.7 8.2-8 13.3-19.1 13.3-31.4 0-21.3-15.2-39-35.4-42.9v-2.9c0-2.3-1.9-4.2-4.2-4.2h-8.3c-2.3 0-4.2 1.9-4.2 4.2v2.9c-20.2 3.9-35.4 21.6-35.4 42.9 0 12.3 5.1 23.4 13.3 31.4-1.9-.3-3.8.2-5.2 1.7l-6.2 6.3c-2.4 2.4-2.4 6.4 0 8.8 2.4 2.4 6.4 2.4 8.8 0l6.2-6.3c1.7-1.7 2.2-4.2 1.5-6.3 7.2 5.1 15.9 8.2 25.4 8.2 9.5 0 18.2-3 25.4-8.2-.7 2.2-.2 4.6 1.5 6.3l6.2 6.3c2.4 2.4 6.4 2.4 8.8 0 2.4-2.4 2.4-6.4 0-8.8l-6.3-6.3zm-35.7-.8c-17.2 0-31.2-14-31.2-31.3s14-31.3 31.2-31.3 31.2 14 31.2 31.3-14 31.3-31.2 31.3zm12.7-28.6l-7.2-4v-12.1c0-3.3-2.7-6-6-6s-6 2.7-6 6v19.1l13.3 7.5c2.9 1.6 6.5.6 8.2-2.3 1.6-2.9.6-6.6-2.3-8.2zm-34.6-50.1c-7.3-4.2-16.7-3.3-22.7 2.8-6.2 6.2-7 15.8-2.5 23.3 4.9-11.5 13.9-20.8 25.2-26.1zm69 26c4.5-7.4 3.7-17-2.5-23.3-6.1-6.1-15.4-6.9-22.7-2.8 11.3 5.4 20.3 14.7 25.2 26.1z" fill="#7A7A7A"/></svg>